<svg width="85" height="80" viewBox="0 0 85 80" fill="none" xmlns="http://www.w3.org/2000/svg">
<path d="M42.4999 31.2109C50.464 31.2109 56.9432 24.2103 56.9432 15.6054C56.9432 7.00056 50.464 0 42.4999 0C34.5358 0 28.0566 7.00056 28.0566 15.6054C28.0566 24.2103 34.5358 31.2109 42.4999 31.2109ZM42.4999 5.38119C47.7178 5.38119 51.9628 9.96775 51.9628 15.6054C51.9628 21.2431 47.7178 25.8297 42.4999 25.8297C37.2821 25.8297 33.037 21.2431 33.037 15.6054C33.037 9.96775 37.2821 5.38119 42.4999 5.38119Z" fill="#2352DE"/>
<path d="M71.7186 31.2105C76.7534 31.2105 80.8495 26.7848 80.8495 21.345C80.8495 15.9052 76.7534 11.4795 71.7186 11.4795C66.6839 11.4795 62.5878 15.9052 62.5878 21.345C62.5878 26.7848 66.6839 31.2105 71.7186 31.2105ZM71.7186 16.8607C74.0072 16.8607 75.869 18.8723 75.869 21.345C75.869 23.8177 74.0072 25.8293 71.7186 25.8293C69.4301 25.8293 67.5683 23.8177 67.5683 21.345C67.5683 18.8723 69.4301 16.8607 71.7186 16.8607Z" fill="#2352DE"/>
<path d="M73.7274 37.3091H69.8758C65.3372 37.3091 61.4192 40.2063 59.6339 44.3678C55.9581 40.0323 50.6783 37.3091 44.8206 37.3091H40.1794C34.3217 37.3091 29.0419 40.0323 25.3661 44.3678C23.5806 40.2063 19.6627 37.3091 15.124 37.3091H11.2724C5.05683 37.3091 0 42.7398 0 49.415V69.0043C0 71.9022 2.19041 74.2599 4.88284 74.2599H20.1109C20.3663 77.4707 22.8651 79.9998 25.902 79.9998H59.098C62.1347 79.9998 64.6336 77.4707 64.8891 74.2599H79.9432C82.7316 74.2599 85 71.8186 85 68.8177V49.415C84.9998 42.7398 79.943 37.3091 73.7274 37.3091V37.3091ZM4.98046 49.415C4.98046 45.707 7.80305 42.6903 11.2724 42.6903H15.124C18.5934 42.6903 21.416 45.707 21.416 49.415V51.2573C19.7414 55.9683 20.0879 58.7917 20.0879 68.8787H4.98046V49.415ZM59.9315 73.718C59.9315 74.2147 59.5577 74.6186 59.098 74.6186H25.9019C25.4422 74.6186 25.0683 74.2145 25.0683 73.718V59.0171C25.0683 50.0144 31.847 42.6903 40.1792 42.6903H44.8205C53.1528 42.6903 59.9315 50.0144 59.9315 59.017V73.718ZM80.0194 68.8177C80.0194 68.9104 80.9477 68.8787 64.912 68.8787C64.912 58.717 65.2558 55.9606 63.5839 51.2573V49.415C63.5839 45.707 66.4065 42.6903 69.8758 42.6903H73.7274C77.1968 42.6903 80.0194 45.707 80.0194 49.415V68.8177Z" fill="#2352DE"/>
<path d="M13.2812 31.2105C18.3159 31.2105 22.412 26.7848 22.412 21.345C22.412 15.9052 18.3159 11.4795 13.2812 11.4795C8.24646 11.4795 4.15036 15.9052 4.15036 21.345C4.15036 26.7848 8.24646 31.2105 13.2812 31.2105ZM13.2812 16.8607C15.5697 16.8607 17.4316 18.8723 17.4316 21.345C17.4316 23.8177 15.5697 25.8293 13.2812 25.8293C10.9927 25.8293 9.13082 23.8177 9.13082 21.345C9.13082 18.8723 10.9927 16.8607 13.2812 16.8607Z" fill="#2352DE"/>
</svg>
