<svg width="85" height="80" viewBox="0 0 85 80" fill="none" xmlns="http://www.w3.org/2000/svg">
<path d="M52.1599 15.4182C55.4424 12.934 56.1855 10.2784 56.2307 8.48792C56.3411 4.13215 52.6699 0.944658 52.2508 0.595752C51.2128 -0.269246 49.6228 -0.182059 48.6994 0.790595C47.7761 1.76325 47.8692 3.25278 48.9074 4.11793C48.9309 4.13762 51.2567 6.17637 51.201 8.3762C51.1713 9.54823 50.4508 10.6523 48.9984 11.7515C45.716 14.2357 44.9728 16.8913 44.9276 18.6818C44.8171 23.0376 48.4884 26.2251 48.9074 26.5741C49.3878 26.9744 49.9875 27.1716 50.5848 27.1716C51.2779 27.1716 51.9678 26.906 52.4638 26.3834C53.3871 25.4107 53.299 23.9252 52.2608 23.0602C51.6006 22.4977 49.8998 20.6316 49.9577 18.7759C49.9942 17.6104 50.7145 16.512 52.1599 15.4182Z" fill="#2352DE"/>
<path d="M36.1989 15.4182C39.4813 12.934 40.2245 10.2784 40.2697 8.48792C40.3801 4.13215 36.7089 0.944658 36.2898 0.595752C35.2519 -0.269246 33.6617 -0.182059 32.7383 0.790595C31.8151 1.76325 31.9081 3.25278 32.9463 4.11793C32.9698 4.13762 35.2956 6.17637 35.2399 8.3762C35.2102 9.54823 34.4898 10.6523 33.0373 11.7515C29.7549 14.2357 29.0118 16.8913 28.9666 18.6818C28.8562 23.0376 32.5274 26.2251 32.9463 26.5741C33.4268 26.9744 34.0265 27.1716 34.6237 27.1716C35.3168 27.1716 36.0068 26.906 36.5027 26.3834C37.426 25.4107 37.3379 23.9252 36.2998 23.0602C35.6395 22.4977 33.9388 20.6316 33.9966 18.7759C34.0332 17.6104 34.7534 16.512 36.1989 15.4182Z" fill="#2352DE"/>
<path d="M72.212 38.4608H69.2347V36.7324C69.2347 35.4308 68.1085 34.3755 66.7191 34.3755H2.51561C1.12639 34.3755 0 35.4306 0 36.7324V49.1711C0 60.1622 6.49333 69.8267 16.2419 75.2863H2.51711C1.12789 75.2863 0.00150097 76.3415 0.00150097 77.6432C0.00150097 78.9449 1.12756 80.0001 2.51711 80.0001H66.7193C68.1085 80.0001 69.2349 78.9449 69.2349 77.6432C69.2349 76.3415 68.1087 75.2863 66.7193 75.2863H52.993C58.5365 72.1817 63.0272 67.7178 65.8697 62.4225H72.2121C79.2633 62.4225 85 57.0478 85 50.4416C85 43.8353 79.2632 38.4608 72.212 38.4608ZM64.2037 49.1711C64.2035 63.5711 50.9312 75.2863 34.6174 75.2863C18.3036 75.2863 5.03123 63.5711 5.03123 49.1711V39.0892H64.2035V49.1711H64.2037ZM72.212 57.7089H67.8832C68.7623 54.9965 69.2347 52.132 69.2347 49.1711V43.1742H72.212C76.489 43.1742 79.9688 46.4344 79.9688 50.4416C79.9688 54.4487 76.489 57.7089 72.212 57.7089Z" fill="#2352DE"/>
<path d="M20.2378 15.4182C23.5202 12.934 24.2634 10.2784 24.3086 8.48792C24.419 4.13215 20.7478 0.944658 20.3287 0.595752C19.2907 -0.269246 17.7007 -0.182059 16.7773 0.790595C15.854 1.76309 15.9471 3.25278 16.9852 4.11793C17.0087 4.13762 19.3346 6.17636 19.2789 8.3762C19.2492 9.54823 18.5287 10.6523 17.0763 11.7515C13.7938 14.2357 13.0507 16.8913 13.0055 18.6818C12.8953 23.0374 16.5665 26.2249 16.9854 26.574C17.4647 26.9734 18.0616 27.1698 18.6563 27.1698C19.3496 27.1698 20.0398 26.9027 20.537 26.3791C21.4603 25.4065 21.3672 23.917 20.329 23.0518C20.3055 23.0321 17.9797 20.9934 18.0354 18.7935C18.0648 17.6215 18.7852 16.5173 20.2378 15.4182Z" fill="#2352DE"/>
</svg>
