<svg width="85" height="80" viewBox="0 0 85 80" fill="none" xmlns="http://www.w3.org/2000/svg">
<path d="M75.8691 0H29.3848C24.35 0 20.2539 3.87027 20.2539 8.62745V28.2353H9.13086C4.0961 28.2353 0 32.1056 0 36.8627V61.9608C0 66.718 4.0961 70.5882 9.13086 70.5882H24.3996L30.301 78.9522C30.7629 79.6067 31.5405 80 32.373 80C33.2056 80 33.9832 79.6067 34.4451 78.9522L40.3464 70.5882H55.6152C60.65 70.5882 64.7461 66.718 64.7461 61.9608V42.3529H75.8691C80.9039 42.3529 85 38.4827 85 33.7255V8.62745C85 3.87027 80.9039 0 75.8691 0V0ZM59.7656 61.9608C59.7656 64.1231 57.9038 65.8824 55.6152 65.8824H39.0137C38.1811 65.8824 37.4035 66.2756 36.9416 66.9302L32.373 73.4052L27.8045 66.9302C27.3426 66.2756 26.565 65.8824 25.7324 65.8824H9.13086C6.84233 65.8824 4.98047 64.1231 4.98047 61.9608V36.8627C4.98047 34.7004 6.84233 32.9412 9.13086 32.9412H20.2539V33.7255C20.2539 35.1373 20.617 36.4695 21.2558 37.6471H12.4512C11.0759 37.6471 9.96094 38.7006 9.96094 40C9.96094 41.2995 11.0759 42.3529 12.4512 42.3529H44.6537L47.974 47.0588H12.4512C11.0759 47.0588 9.96094 48.1123 9.96094 49.4118C9.96094 50.7112 11.0759 51.7647 12.4512 51.7647H52.627C53.4597 51.7647 54.2371 51.3715 54.6988 50.7169L59.7656 43.5358V61.9608ZM80.0195 33.7255C80.0195 35.8878 78.1577 37.6471 75.8691 37.6471H59.2676C58.4348 37.6471 57.6574 38.0403 57.1957 38.6949L52.627 45.1699L48.0582 38.6949C47.5965 38.0403 46.8189 37.6471 45.9863 37.6471H29.3848C27.0962 37.6471 25.2344 35.8878 25.2344 33.7255V8.62745C25.2344 6.4651 27.0962 4.70588 29.3848 4.70588H75.8691C78.1577 4.70588 80.0195 6.4651 80.0195 8.62745V33.7255Z" fill="#2352DE"/>
<path d="M52.2949 56.4707H12.4512C11.0759 56.4707 9.96094 57.5242 9.96094 58.8236C9.96094 60.1231 11.0759 61.1766 12.4512 61.1766H52.2949C53.6702 61.1766 54.7852 60.1231 54.7852 58.8236C54.7852 57.5242 53.6702 56.4707 52.2949 56.4707Z" fill="#2352DE"/>
<path d="M64.6062 16.3827L57.8717 15.458L54.8601 9.6919C54.4405 8.88876 53.5749 8.38037 52.627 8.38037C51.679 8.38037 50.8134 8.88876 50.3939 9.6919L47.3822 15.458L40.6478 16.3827C39.7098 16.5114 38.9304 17.1322 38.6375 17.9841C38.3445 18.8359 38.5889 19.771 39.2675 20.3961L44.1406 24.8841L42.9901 31.2215C42.8299 32.1043 43.2141 32.9964 43.9809 33.523C44.7475 34.0491 45.7641 34.1187 46.6034 33.7021L52.627 30.7098L58.6504 33.7021C59.0148 33.883 59.4125 33.9724 59.809 33.9724C60.3253 33.9724 60.8393 33.8208 61.2729 33.5231C62.0397 32.9967 62.4239 32.1044 62.2637 31.2216L61.1132 24.8842L65.9863 20.3962C66.6651 19.7711 66.9095 18.8361 66.6165 17.9843C66.3236 17.1324 65.5443 16.5115 64.6062 16.3827V16.3827ZM56.6993 22.3779C56.1123 22.9184 55.8445 23.6972 55.9832 24.4605L56.502 27.3181L53.7859 25.9688C53.423 25.7887 53.0251 25.6985 52.6271 25.6985C52.2292 25.6985 51.8311 25.7885 51.4684 25.9688L48.7523 27.3181L49.2711 24.4605C49.4098 23.6972 49.142 22.9184 48.5549 22.3779L46.3577 20.3542L49.3945 19.9372C50.2056 19.8259 50.9067 19.3446 51.2695 18.6502L52.6275 16.0502L53.9855 18.6502C54.3482 19.3446 55.0493 19.8259 55.8605 19.9372L58.8972 20.3542L56.6993 22.3779Z" fill="#2352DE"/>
</svg>
