<svg width="85" height="80" viewBox="0 0 85 80" fill="none" xmlns="http://www.w3.org/2000/svg">
<path d="M78.3652 11.5023H60.4463V7.83762C60.4463 3.51603 57.3704 0 53.589 0H31.411C27.6301 0 24.5537 3.51576 24.5537 7.83762V11.5023H6.635C2.97645 11.5023 0 14.9038 0 19.085V72.4169C0 76.5981 2.97645 80 6.635 80H78.365C82.0236 80 85 76.5981 85 72.4169V19.085C85.0002 14.9041 82.024 11.5023 78.3652 11.5023ZM30.3483 7.83762C30.3483 7.16768 30.8253 6.62252 31.4112 6.62252H53.5892C54.1752 6.62252 54.6522 7.16768 54.6522 7.83762V11.5023H30.3483V7.83762V7.83762ZM6.63524 18.1248H78.3652C78.8288 18.1248 79.2059 18.5555 79.2059 19.085V36.462C70.2274 40.2686 56.6846 42.5171 42.4757 42.5171C28.298 42.5171 14.7738 40.2763 5.79436 36.4824V19.085C5.79459 18.5555 6.17169 18.1248 6.63524 18.1248ZM78.3652 73.3775H6.63524C6.17169 73.3775 5.79459 72.9468 5.79459 72.4169V43.4985C14.0128 46.5971 24.8179 48.5338 36.5932 49.0191C36.5925 49.0575 36.5884 49.0946 36.5884 49.1335V50.5939C36.5884 53.3317 38.5371 55.5589 40.9327 55.5589H44.068C46.4636 55.5589 48.4123 53.3317 48.4123 50.5939V49.1335C48.4123 49.0946 48.4077 49.0564 48.4075 49.0175C60.1902 48.5279 70.9936 46.5857 79.2063 43.4811V72.4172C79.2059 72.9468 78.8288 73.3775 78.3652 73.3775Z" fill="#2352DE"/>
</svg>
